{
  "accessors": [
    {
      "bufferView": 2,
      "componentType": 5126,
      "count": 16434,
      "max": [
        567.14208984375,
        324.0318908691406,
        501.6444091796875
      ],
      "min": [
        -562.517822265625,
        -375.6534118652344,
        481.644287109375
      ],
      "type": "VEC3"
    },
    {
      "bufferView": 2,
      "byteOffset": 197208,
      "componentType": 5126,
      "count": 16434,
      "max": [
        0.999990701675415,
        1.0,
        1.0
      ],
      "min": [
        -0.999990701675415,
        -0.9999990463256836,
        -1.0
      ],
      "type": "VEC3"
    },
    {
      "bufferView": 1,
      "componentType": 5126,
      "count": 16434,
      "max": [
        0.6326000094413757,
        0.9994999766349792
      ],
      "min": [
        0.0005000000237487257,
        0.0005000000237487257
      ],
      "type": "VEC2"
    },
    {
      "bufferView": 0,
      "componentType": 5125,
      "count": 96000,
      "type": "SCALAR"
    },
    {
      "bufferView": 2,
      "byteOffset": 394416,
      "componentType": 5126,
      "count": 65532,
      "max": [
        505.3699951171875,
        310.5963134765625,
        482.62750244140625
      ],
      "min": [
        -500.7455139160156,
        -362.2178039550781,
        -0.41350001096725464
      ],
      "type": "VEC3"
    },
    {
      "bufferView": 2,
      "byteOffset": 1180800,
      "componentType": 5126,
      "count": 65532,
      "max": [
        0.9999827146530151,
        0.9999831914901733,
        0.9997386336326599
      ],
      "min": [
        -0.9999827146530151,
        -1.0,
        -1.0
      ],
      "type": "VEC3"
    },
    {
      "bufferView": 1,
      "byteOffset": 131472,
      "componentType": 5126,
      "count": 65532,
      "max": [
        2.158900022506714,
        1.8121999502182007
      ],
      "min": [
        -1.3020999431610107,
        -0.7321000099182129
      ],
      "type": "VEC2"
    },
    {
      "bufferView": 0,
      "byteOffset": 384000,
      "componentType": 5125,
      "count": 382005,
      "type": "SCALAR"
    },
    {
      "bufferView": 2,
      "byteOffset": 1967184,
      "componentType": 5126,
      "count": 65532,
      "max": [
        524.2952880859375,
        308.7096862792969,
        483.33221435546875
      ],
      "min": [
        -410.8268127441406,
        -354.1304931640625,
        -0.3885999917984009
      ],
      "type": "VEC3"
    },
    {
      "bufferView": 2,
      "byteOffset": 2753568,
      "componentType": 5126,
      "count": 65532,
      "max": [
        1.0,
        1.0,
        1.0
      ],
      "min": [
        -0.9999992847442627,
        -1.0,
        -1.0
      ],
      "type": "VEC3"
    },
    {
      "bufferView": 1,
      "byteOffset": 655728,
      "componentType": 5126,
      "count": 65532,
      "max": [
        2.967099905014038,
        1.4780000448226929
      ],
      "min": [
        -2.0418999195098877,
        -0.3779999911785126
      ],
      "type": "VEC2"
    },
    {
      "bufferView": 0,
      "byteOffset": 1912020,
      "componentType": 5125,
      "count": 377577,
      "type": "SCALAR"
    },
    {
      "bufferView": 2,
      "byteOffset": 3539952,
      "componentType": 5126,
      "count": 65532,
      "max": [
        534.7661743164063,
        307.6742858886719,
        483.33221435546875
      ],
      "min": [
        -530.1417846679688,
        -360.3312072753906,
        -0.3384000062942505
      ],
      "type": "VEC3"
    },
    {
      "bufferView": 2,
      "byteOffset": 4326336,
      "componentType": 5126,
      "count": 65532,
      "max": [
        0.9999998807907104,
        0.9999995231628418,
        1.0
      ],
      "min": [
        -0.9999992847442627,
        -1.0,
        -1.0
      ],
      "type": "VEC3"
    },
    {
      "bufferView": 1,
      "byteOffset": 1179984,
      "componentType": 5126,
      "count": 65532,
      "max": [
        2.625200033187866,
        1.7655999660491943
      ],
      "min": [
        -1.8316999673843384,
        -0.5418999791145325
      ],
      "type": "VEC2"
    },
    {
      "bufferView": 0,
      "byteOffset": 3422328,
      "componentType": 5125,
      "count": 369333,
      "type": "SCALAR"
    },
    {
      "bufferView": 2,
      "byteOffset": 5112720,
      "componentType": 5126,
      "count": 61115,
      "max": [
        532.57470703125,
        304.89898681640625,
        483.33221435546875
      ],
      "min": [
        -527.7202758789063,
        -362.2178955078125,
        -0.41339999437332153
      ],
      "type": "VEC3"
    },
    {
      "bufferView": 2,
      "byteOffset": 5846100,
      "componentType": 5126,
      "count": 61115,
      "max": [
        0.9999414682388306,
        1.0,
        1.0
      ],
      "min": [
        -1.0,
        -1.0,
        -1.0
      ],
      "type": "VEC3"
    },
    {
      "bufferView": 1,
      "byteOffset": 1704240,
      "componentType": 5126,
      "count": 61115,
      "max": [
        2.967099905014038,
        1.8121999502182007
      ],
      "min": [
        -2.0418999195098877,
        -0.7321000099182129
      ],
      "type": "VEC2"
    },
    {
      "bufferView": 0,
      "byteOffset": 4899660,
      "componentType": 5125,
      "count": 344157,
      "type": "SCALAR"
    }
  ],
  "asset": {
    "extras": {
      "author": "Modenese Gastone Interiors (https://sketchfab.com/modeneseinteriors)",
      "license": "CC-BY-4.0 (http://creativecommons.org/licenses/by/4.0/)",
      "source": "https://sketchfab.com/3d-models/traditional-marble-top-coffee-table-by-modenese-cdf822d10bda4dc09e429a85ed70dd50",
      "title": "Traditional marble top coffee table by Modenese"
    },
    "generator": "Sketchfab-16.51.0",
    "version": "2.0"
  },
  "bufferViews": [
    {
      "buffer": 0,
      "byteLength": 6276288,
      "name": "floatBufferViews",
      "target": 34963
    },
    {
      "buffer": 0,
      "byteLength": 2193160,
      "byteOffset": 6276288,
      "byteStride": 8,
      "name": "floatBufferViews",
      "target": 34962
    },
    {
      "buffer": 0,
      "byteLength": 6579480,
      "byteOffset": 8469448,
      "byteStride": 12,
      "name": "floatBufferViews",
      "target": 34962
    }
  ],
  "buffers": [
    {
      "byteLength": 15048928,
      "uri": "scene.bin"
    }
  ],
  "materials": [
    {
      "doubleSided": true,
      "name": "wire_006135006",
      "pbrMetallicRoughness": {
        "baseColorFactor": [
          0.0235,
          0.5294,
          0.0235,
          1.0
        ],
        "metallicFactor": 0.0,
        "roughnessFactor": 0.9167555019498095
      }
    }
  ],
  "meshes": [
    {
      "name": "Object_0",
      "primitives": [
        {
          "attributes": {
            "NORMAL": 1,
            "POSITION": 0,
            "TEXCOORD_0": 2
          },
          "indices": 3,
          "material": 0,
          "mode": 4
        }
      ]
    },
    {
      "name": "Object_1",
      "primitives": [
        {
          "attributes": {
            "NORMAL": 5,
            "POSITION": 4,
            "TEXCOORD_0": 6
          },
          "indices": 7,
          "material": 0,
          "mode": 4
        }
      ]
    },
    {
      "name": "Object_2",
      "primitives": [
        {
          "attributes": {
            "NORMAL": 9,
            "POSITION": 8,
            "TEXCOORD_0": 10
          },
          "indices": 11,
          "material": 0,
          "mode": 4
        }
      ]
    },
    {
      "name": "Object_3",
      "primitives": [
        {
          "attributes": {
            "NORMAL": 13,
            "POSITION": 12,
            "TEXCOORD_0": 14
          },
          "indices": 15,
          "material": 0,
          "mode": 4
        }
      ]
    },
    {
      "name": "Object_4",
      "primitives": [
        {
          "attributes": {
            "NORMAL": 17,
            "POSITION": 16,
            "TEXCOORD_0": 18
          },
          "indices": 19,
          "material": 0,
          "mode": 4
        }
      ]
    }
  ],
  "nodes": [
    {
      "children": [
        1
      ],
      "matrix": [
        1.0,
        0.0,
        0.0,
        0.0,
        0.0,
        2.220446049250313e-16,
        -1.0,
        0.0,
        0.0,
        1.0,
        2.220446049250313e-16,
        0.0,
        0.0,
        0.0,
        0.0,
        1.0
      ],
      "name": "Sketchfab_model"
    },
    {
      "children": [
        2,
        3,
        4,
        5,
        6
      ],
      "name": "art 15688 coffee table.obj.cleaner.materialmerger.gles"
    },
    {
      "mesh": 0,
      "name": "Object_2"
    },
    {
      "mesh": 1,
      "name": "Object_3"
    },
    {
      "mesh": 2,
      "name": "Object_4"
    },
    {
      "mesh": 3,
      "name": "Object_5"
    },
    {
      "mesh": 4,
      "name": "Object_6"
    }
  ],
  "scene": 0,
  "scenes": [
    {
      "name": "Sketchfab_Scene",
      "nodes": [
        0
      ]
    }
  ]
}
